<svg xmlns="http://www.w3.org/2000/svg" width="256" height="256" viewBox="0 0 256 256"><path fill="#f0de7f" stroke="#70683f" stroke-linecap="round" stroke-linejoin="round" stroke-width="4" d="M128.3 243.4l81.2-222.5H47.2l81.1 222.5z"/><path fill="#70683f" d="M97 87.3l5.4-10.9-7.6-3.3L89.3 84l-7.5-3.3 5.5-10.9-7.7-3.4 2.8-6.4 8 3.5 6.2-12.3-8.7-3.8 2.8-6.4 9 3.9 5.5-10.9 7.5 3.3-5.5 10.9 7.7 3.4 5.4-10.9 7.5 3.3-5.5 10.9 7.7 3.4-2.8 6.4-8-3.5-6.2 12.3 8.6 3.8-2.8 6.4-9-3.9-5.5 10.9zm8.5-17.1l6.2-12.3-7.7-3.4-6.1 12.4z"/></svg>